<?xml version="1.0" encoding="UTF-8"?>
<svg id="Layer_1" xmlns="http://www.w3.org/2000/svg" version="1.1" viewBox="0 0 110 32">
  <!-- Generator: Adobe Illustrator 29.8.1, SVG Export Plug-In . SVG Version: 2.1.1 Build 2)  -->
  <defs>
    <style>
      .st0 {
        fill: #0074b9;
      }
    </style>
  </defs>
  <path class="st0" d="M109.973,11.478c-.121.101-.211.423-.368.365-.023-.182.012-.369.094-.567-.105-.078-.207-.151-.312-.225.308-.291,0-.489.25-.773-.461-.245-.606-.544-.739-.847-.18-.019-.019.225-.207.171-.277-.218-.649.012-1.094-.474-.031.245-.086.416-.36.377.114-.12.211-.245-.004-.319-.25-.027-.187.186-.359.377-.77-.004-1.473.455-1.931.99-.148-.078-.265.058-.441-.159-.16.136-.332.225-.512.26-.219-.054.082-.194-.137-.253-.144.043-.254.342-.41.338.121-.144.184-.272.125-.388-.07.214-.219-.035-.336-.085.074-.423.086-.835.035-1.239-.543-.462-.93-.563-1.336-.804-.93.68-.798,1.915-1.302,2.63-.285.412-.648.478-1.063.901.203-.078.446.089.649-.008-1.54,3.08-2.712,6.157-5.252,9.299-.023.357-.125.75-.348,1.018.113.637.426,1.857,1.493,1.787.008.183-.141.388.082.536.324-.012.543-.676.903-.462.094.093-.094.229.004.319,1.712-1.915,2.497-4.083,3.677-6.071-.098-.136-.016-.303-.074-.447.433-.528.293-1.596,1.027-1.721.098-.342.215-.447.481-.761-.426-.109-.445.583-.766.715.004-.804,1.52-1.616,1.29-2.401-.176.167-.317.563-.512.583,1.211-1.402,1.969-2.871,3.169-3.426-.266.369-.801.602-.891,1.099.141-.097.27-.268.442-.159-.688.913-1.607,1.624-1.962,2.548.59-.357,1.082-1.356,1.715-1.457-.293.486-.859.796-1.004,1.259.703-.237,1.075-1.231,1.755-1.511.09-.039.281.097.34.085.379-.089.633-.35,1.059-.35-.676,1.81-1.048,3.387-1.747,5.089-.024.179.227.019.172.202-.27.688-.289,1.328-.79,2.051.079.858-.015,1.748.18,2.587-.273.05.024.264-.16.439.528.606.551,1.29,1.454,1.837.054.097-.2.245.004.318,1.031.536,1.899.054,2.774-.385-.309-.082-.629-.26-.91-.179-.59-.431-1.216-.855-1.317-1.262-.016-.078.14-.163.101-.245-.234-.552-.609-1.025-.449-1.674.078-.008.352-.249.266-.361-.214.243-.07-.096-.21-.146,1.405-1.883,1.831-4.05,2.851-5.716.387-.629.559-.901.329-1.426.152-.622.742-1.309.582-1.88ZM107.667,17.111c-.509.714-.984,1.519-1.248,2.331-.114.353-.192.707-.209,1.057,0,0,0,0,0,0,0,0,0,0,0,0,0,.001,0,.002,0,.003-.183.097-.05.365-.23.311-.027-.148-.041-.302-.041-.462-.004-1.113.639-2.468,1.729-3.24h0s0,0,0,0ZM94.521,16.217c.129-.295.703-.66.418-.889-.102.291-.43.618-.418.889ZM96.158,14.543c.301-.295.574-.975.528-1.367-.184.458-.496.932-.528,1.367ZM97.932,11.377c.066.687-1.11,1.499-1.032,2.272.195.155.293-.284.461-.303-.379.54-.59,1.429-1.153,1.783-.531,1.336-1.286,2.653-2.485,3.919-.102.167.09.291.07.447-.277.575-.664.482-.961.975-.207-.175.195-.194.086-.338-.504.431-.946,1.251-1.426,1.83.391-.082.688-.754,1.11-.633-.328.761-1.485,1.367-2.138,2.028-.047.268-.172.524-.442.711-.145-.163-.051-.361.094-.567-.461.404-.969.509-1.442.866-.098-.089.094-.225-.004-.319-.93.482-2.001-.101-2.939-.369-1.168-1.993-1.118-4.65.864-6.829.375-1.445,1.383-2.933,2.56-4.339,1.223-1.464,2.071-3.496,3.677-4.013.907.668,1.614,1.367,1.602,2.179-1.52,1.095-2.759,2.428-4.119,4.172.313.194.887-.454,1.231-1.018.082.711-1.555,1.317-1.372,2.183-.496.439-.68.754-1.082,1.36.156.113.207-.439.387-.198-.559,1.15-1.344,1.783-1.907,2.909.25-.086.438-.555.664-.788-.039.633-.598,1.344-.75,1.997.531-.28,1.008-.482,1.547-.789.75-.431,1.251-1.181,2.001-1.732.543-.404,1.395-.567,1.731-1.367.164-.152.348-.136.512-.264,1.442-1.635,2.724-3.426,3.388-5.252.328-.081.391-.318.821-.68-.172-.186-.246.206-.418.019.074-.334.449-.47.68-.703.356.167-.442.889-.36,1.251.219.105.34-.404.543-.4ZM96.702,16.202c.047.287-.149.536-.406.66-.039-.194.301-.447.406-.66ZM93.572,20.448c.062.318-.289.381-.356.695-.207-.183.27-.47.356-.695ZM92.903,20.918c.223.078-.094.419-.207.171.066-.082.121-.218.207-.171ZM86.741,3.807c.985.019,1.907,1.177,1.973,1.896-.653.412-1.352.602-1.559,1.573-.567-1.088-.492-2.276-.414-3.469ZM78.902,21.625c.496-.808,1.372-1.581,1.469-2.432-.586.742-1.278,1.554-1.469,2.432ZM83.286,12.415c.281.416.031.913.215,1.344-.094.217-.199.618-.446.711.172.198.266-.082.446.159-.258.47-.668.959-.528,1.367-1.653,2.249-3.607,5.151-4.533,7.672-.281-.105-.567-.241-.778.074-.328-.132.023-.369-.266-.509-.285-.136-.496.171-.75.252-.34-.482-.469-.994-.75-1.488.535-1.624,1.54-3.325,2.227-4.976.418-.734.95-1.344,1.309-1.993.102-.19.086-.404.188-.579.422-.734,1.004-1.332,1.293-2.078.172-.451.059-1.037.696-1.165.699.311,1.106.68,1.676,1.208ZM58.82,16.536c.113-.167.481-.249.434-.478-.137.035-.481.252-.434.478ZM64.818,10.469c-.645.233-1.329.198-1.88,1.025-.41.132-.793.548-.907,1.014-1.301.909-1.817,2.195-2.755,3.407.117-.058.207-.245.336-.237-.168.878-1.247,1.624-1.418,2.47-.043.054-.07.148.016.089.102-.252.145-.287.371-.283.019.396-.567.882-.449,1.262,2.63-2.121,5.119-5.702,6.686-8.748ZM66.233,17.589c.074-.151-.055-.268-.109-.396-.188.124.141.163-.047.284.051.035.102.074.156.113ZM72.548,12.939c.496-.827,1.415-1.158,1.426-1.83-.453.559-1.153,1.115-1.426,1.83ZM83.329,7.458c-.254.117-.199.458-.473.532-.164-.404.066-.866-.563-1.196-1.692.004-3.048,2.098-4.681,2.972-.711.381-1.708.412-2.388,1.608.445-.163.703-.874,1.258-.839-.856,1.336-2.02,2.727-3.165,3.748.313-.816,1.051-1.367,1.501-2.249-1.168,1.126-2.302,2.447-3.396,4.059.27-.167.516-.466.77-.715-.023.687-.821,1.503-1.082,2.23.281.012.477-.497.715-.754-.035.194-.16.668-.363.61-.559,1.158-.418,2.206-.77,3.329.094.019.18-.039.258-.132.098.501-.617.882-.746,1.445-.117.967-.094,2.323-1.266,2.812-.309-.105-.598-.074-.852.179-.203-.19-.371-.19-.524-.058-.766-.369-.59-.886-1.133-1.29.031-.435-.145-.835-.02-1.282-.926-.198-1.618-.889-2.098-1.507.062-.097.145-.062.207-.171-.449-.466-.371-1.01-.75-1.488.117-.75-.023-1.464-.07-2.187.074-.217-.121.132-.195-.062-.016-.167-.094-.322.145-.528-.184.089-.219-.027-.262-.187-.785.932-.809,1.744-1.661,2.688-.043.082.145.132.082.218-1.063,2.004-2.638,3.414-4.248,4.234-.203-.023.266-.07.32-.322-.363-.276-1.106-.008-1.204-.548-.192-.148-.332.05-.52-.058-.293-.625-.778-1.224-.856-1.884.105-.994.215-1.989.359-2.991,1.09-1.643,1.52-3.48,2.794-5.201.379-.517.766-1.247,1.247-1.798.879-1.014,1.958-2.315,3.154-2.645.762.555,1.614,1.095,2.126,1.686.109.151.102.319.035.497.219.016.348-.521.617-.187.047-.132.348-.299.125-.388.094-.183.278.167.364-.054.211.342.434.233.68.489.594.61.184,1.317.418,2.043-.215.264-.313.509-.301.738.223.089.105-.373.281-.276.266.478-.316,1.088-.031,1.565-.125.175-.102.322-.293.505-.035.082.102.136.172.202-.5.734-.344,1.367-.828,2.101.336.101.223-.443.461-.621-.082,1.325-.836,2.758-.567,4.028.332.241.66.478.996.715.367-.066.555-.746.621-1.057,1.274-3.177,3.74-6.32,5.115-9.556-.856.245-1.68.711-2.696-.039-.047-.388-.645-.695-.637-1.095,1.809-.959,3.615-1.993,5.518-2.37,1.227-2.296,2.489-4.731,3.767-6.957,1.809,1.158-.184,2.902.035,4.304-.496.505-.336.909-.344,1.336.152.078.27-.062.442.159.18-.167.395-.008.649-.012.074,0,.172-.132.258-.132.074.004.141.148.211.151.637.012,1.672-.117,2.313.233.59.33.946.897.969,1.418ZM73.607,15.204c-.321.524-.52,1.029-1.004,1.577-.016-.089-.031-.179-.043-.268.328-.381.821-1.251,1.047-1.309ZM51.946,12.151c.34-.59.969-.921,1.161-1.464-.379.175-1.102,1.208-1.161,1.464ZM53.646,10.282c.133-.218.356-.225.25-.451-.059.144-.34.326-.25.451ZM54.759,8.55c-.215-.183-.332.245-.516.264.211.14.344-.186.516-.264ZM60.519,6.506c-.02.233-.137.567-.352.695-1.137-.509-2.016.575-2.997,1.018-.074.132-.059.252-.215.4-.195.113.082-.221.137-.295-.121-.186-.164.14-.285-.047-.883.874-1.86,1.142-2.72,2.164.91-.493,1.782-1.231,2.669-1.88-.164.649-1.121,1.01-1.626,1.445-1.118,1.69-2.962,3.375-4.22,5.287.031-.241.008-.4-.289-.369.082-.21.242-.435.223-.629-.25.513-1.282,1.542-.829,2.101.137-.039.277-.47.496-.676-.059.524-.836,1.266-1.125,1.965.285.031.352-.369.512-.583-.164,1.022-.766,2.105-1.215,3.17-.141.113.277.14.137.252-.277.866-.66,1.752-1.067,2.641-.434-.19-.27-.478-.348-.726-.301.241-.567.722-.926.602-.039-.116-.02-.245-.059-.361-.156-.218-.231.093-.391-.124-.281-.307-.359-.645-.66-.952.25-.536-.313-.874-.125-1.356.055-.14.242-.256.305-.416.172-.423.281-.893.488-1.313,1.078-2.191,1.477-4.704,2.52-6.903.067-.423-.055-.816-.238-1.2.277-.303.653.027.93-.284.363.392.961.264,1.047.754.336-.132.653-.381.95-.746,1.942-.618,3.708-2.369,5.639-3.076.117-.14-.102-.225.125-.385.477-.252,1.434-.544,2.016-.451.574.093,1.004-.179,1.493.276ZM58.534,8.328c-.328.777-1.415.921-2.012,1.643-.184.221-.445.676-.793.858-.062.031-.25-.047-.324.004-.231.151-.52.552-.844.82-.383.315-.864.439-.844.82-.297-.012-.508.501-.766.715.973-2.136,2.95-2.987,4.435-4.498.293.218.766-.237,1.149-.361ZM55.604,11.214c-.313.33-.285.738-.649.882.129-.28.195-.862.649-.882ZM53.841,12.407c.004.183-.109.385-.277.594-.184-.295.066-.427.277-.594ZM53.349,13.079c.031.202-.106.637-.383.517-.023-.225.254-.357.383-.517ZM52.685,13.868c.227.089-.07.291-.137.299-.125-.05.004-.361.137-.299ZM47.288,10.305c.141.116.231-.101.391.124-.805,1.523-1.758,4.646-3.685,5.434-.125.14,0,.245-.125.388-.477.311-.95.625-1.411,1.045-1.313-.035-1.54,2.07-2.372,2.89-.211-.641.25-1.387.41-2.082-1.145,1.126-1.043,2.455-.832,3.523.817.338,1.872-.241,2.79-.847.832-.548,1.688-1.356,2.536-2.136.121.167,0,.369.176.524-1.18,1.231-1.399,2.898-2.458,4.098-.039.082.098.136.172.202-.492.303-.953.812-1.52.649-.27.237-.532.559-.879.318.137-.132.426-.163.41-.338-.535.144-1.293.043-1.973-.152-.371-.109-.32-.404-.582-.738-.379-.474-.93-.719-.617-1.231-.348-.132-.176-.338-.449-.482.187-.198.23-.373.242-.54-.313-.808.164-1.736.145-2.587.645-1.294,1.407-2.797,1.93-3.923.449-.28.367-.594.801-1.088.102-.14-.047-.237-.059-.357.828-.994,1.344-2.101,2.177-2.952.383-.971,1.645-1.266,2.356-2.109.371.097.684-.171,1.035-.21.199.089.004.167-.062.194.168.012.235.284.59.501,1.02.171.973,1.235.864,1.88ZM40.832,19.927c.156.117-.129.427-.254.451-.086-.12.195-.303.254-.451ZM38.652,14.399c.105.225-.27.532-.43.8-.098-.237.246-.66.43-.8ZM3.224,13.805c.066-.299.563-.668.453-.94-.238.326-.559.668-.453.94ZM7.054,23.847c1.207-1.538,2.665-2.793,3.384-4.696-1.106,1.472-2.739,3.088-3.384,4.696ZM10.164,20.063c.274.256.539-.451.422-.567-.234.268-.211.4-.422.567ZM10.891,19.95c.242-.583.551-.68.785-1.177-.399.12-.785.831-.785,1.177ZM24.638,10.663c-.727-.175-1.661.847-2.477,1.072-1.758,1.565-3.083,2.972-4.431,5.139,2.407-1.426,4.873-3.41,6.909-6.211ZM12.161,18.906c.043-.062.078-.12.113-.179-.051.058-.086.12-.113.179ZM12.161,18.906c-.5.769-1.364,1.74-1.641,2.521-.641.338-1.172,1.367-1.829,1.616-1.047,1.394-2.235,1.915-3.404,2.544-.942-.167-1.751.493-2.696.28-.274-.124-.086-.322-.031-.497-.688-.167-1.239-.462-1.626-1.169-.277-.505-.348-1.562-.59-2.245-.109-.303-.231-.695-.277-1.146-.066-.719.066-1.216-.066-1.872.817-3.682,2.618-8.499,6.237-12.158,1.512-1.523,3.22-3.333,5.002-4.168.469-.019,1.059-.21,1.688.105.688.346,1.29.944,1.63,1.488-.418.303-.887.252-1.344.303-.426.252-.836.575-1.29.66-2.528,1.907-5.025,3.997-7.331,7.326.031.777-.453,1.251-.84,2.012-.293.575-.418,1.309-.66,1.981-.457,1.274-.844,2.533-.946,3.679.137.074.215-.221.363-.054-.477.412,0,.672-.477,1.084.152.738.274,1.488.266,2.253,1.149.252,2.134-1.08,3.474-2.101.258-.194.625-.416,1.079-.808,1.751-1.503,4.201-4.339,5.123-6.619-1.461.062-2.724,1.367-4.127,1.787-.293-.283-.539-.291-.782-.245-.75-.497-.277-1.181-.828-1.705,2.939-2.552,6.108-3.628,9.214-5.1,1.411-.175,2.81-.443,4.306-.074.274.241.52.33.758.385.356.466.836.909.512,1.48,1.544-.816,2.978-2.315,4.639-2.373.75.509,1.493,1.022,1.606,1.631-.418.835-.696,1.515-1.415,2.467.023.12-.199.276.059.361-.285.575-.782,1.453-1.415,1.915-.035.218.211-.198.324-.004-.289.322-.531.932-.883.87-.035-.163.086-.35.242-.54-.606.781-1.493,1.185-1.844,1.845-.047-.082-.016-.179.047-.28-1.622,1.573-3.333,2.587-5.092,3.313.024.73-.035,1.472-.019,2.202,1.829-.183,3.49-1.422,5.209-2.276.637-.637,1.403-.917,2.044-1.464.828-.711,1.395-1.344,2.29-2.234.402-.404.836-.653,1.051-.99.504-.789.61-1.725,1.184-2.478.371-1.293,1.52-2.711,1.372-3.927.512-.179,1.133.303,1.751.781-.086.183.043.33.035.497.418-.194.824-.447,1.235-.695.043.085.016.183-.047.284,1.481-.761,3.357-1.647,4.959.237-.117.159.098.26-.07.423,1.661.882,1.25,2.544.012,3.574-.348.874-1.258,1.923-1.669,2.921-.68,1.231-2.02,2.008-2.149,3.131,1.149-.874,1.653-2.335,2.599-3.519-.195.975-1.047,2.059-1.645,3.1-.164.031-.301.245-.477.21-.039.61-.492.722-.488,1.313.117.062.191-.155.313-.093.102-.524.625-1.053.758-1.356.277.338-.016.54-.258,1.002.359.02.617-.575.961-.656-.531,1.196-1.09,2.478-2.188,3.185-.41-.256-.758-.117-1.118-.012-1.016-.606-.68-1.422-.899-2.152.305-.994,1.02-1.779,1.364-2.828.297-.917.492-1.849.907-2.754.141-.311.262-.618.219-.952.516-.831.907-1.993,1.293-2.952-.993-.303-1.7,1.185-2.571,1.635-.547.932-1.61,1.464-2.224,2.362-.613.897-.793,1.954-1.45,2.839-.145.19.059.326.031.497-.516.217-.668.684-.969,1.208.219.004.34-.59.59-.369-.461.967-1.247,2.202-1.583,3.457-.453.451-1.055-.027-1.614-.21-.613-.408-.598-.917-1.188-1.328.102-.505.133-.998.047-1.472.731-1.029,1.231-2.024,1.837-3.038-1.051.831-2.005,2.284-3.075,2.975.106-.128.156-.252.102-.357-.047.124-.336.291-.137.381-.082.051-.16.097-.246.14-.137.19-.277.381-.418.567-.09.05.133.221.195.175-1.231,1.752-2.927,3.577-4.74,3.923-.031-.369-.695-.489-.942-.357-.656-.548-.75-.148-1.516-.773.051-.07.102-.14.152-.206-.191-.14-.387-.276-.578-.416-.875-1.422-.77-2.999-.363-4.619.105-.214.258-.117.371-.284.625-2.521,3.177-4.696,4.943-7.143-.024-.47-.027-.944-.266-1.379-1.458-.812-2.489,1.084-3.74,1.589-.567.909-1.278.909-1.872,1.666-.086-.054-.18-.171-.25-.097-.293.563.109,1.022-.574,1.647-.117.194.277-.082.16.113-.18.489-.731,1.029-1.055,1.538.41.031.227-.346.528-.493.082-.043-.301.447-.328.555-.027.089.125.124.082.218-.305.653-.785,1.34-.977,1.756,1.125-.598,1.758-2.913,2.564-4.02-.074.866-.547,1.795-.961,2.715-.535.711-1.09,1.422-1.02,2.039-.285.33-.543.866-.856,1.049.168-.264.129-.493.25-.75ZM3.603,12.426c.082-.074.188-.004.277-.054.805-1.231,1.739-2.284,2.364-3.212-.981.866-1.825,2.342-2.642,3.267ZM29.246,18.886c.227.089-.109.342-.18.35-.059-.074.02-.392.18-.35ZM26.287,11.688c.149-.132.32-.136.52.054-.531.241-.266.932-.864,1.282-.145-.404.539-.936.344-1.336ZM23.751,19.375c.055.105.004.229-.102.357-.012.008-.024.012-.035.023-.199-.093.09-.256.137-.381ZM23.65,19.733c-.004.008-.012.019-.023.027-.004-.004-.008-.004-.012-.004.012-.012.024-.016.035-.023ZM12.161,18.906c.027-.054.066-.117.113-.179-.035.058-.07.116-.113.179ZM70.844,30.509l-.723.202-1.204.039s-1.782-.144-.191-.284h1.059l1.059.043ZM66.576,30.365l-.387.202-.645.039s-.957-.144-.102-.283h.571l.563.043ZM108.253,28.9c-2.524-.245-4.775-.369-7.034-.237-.965.054-1.938.051-2.911.051-2.567-.008-5.135-.027-7.702-.051-1.946-.019-3.884-.144-5.834-.101-2.989.066-5.991-.019-8.988-.035-1.286-.004-2.567-.008-3.853.027-1.786.047-3.572.124-5.358.186-1.903.07-3.806.136-5.709.202-1.672.058-3.341.151-5.014.163-2.642.02-5.283-.031-7.925-.031-2.919,0-5.834.031-8.753.035-3.075.004-6.147-.004-9.222-.012-.699-.004-1.403-.066-2.102-.066-1.555,0-3.103.171-4.662.066-.348-.023-.699.004-1.051.008-1.79.027-3.576.058-5.365.074-.465.004-.934-.054-1.399-.05-1.903.023-3.81.066-5.713.093-.699.012-1.399.008-2.095.019-.313.004-.625.008-.93.043-1.61.183-3.228.284-4.889.272.039.365.066.715.121,1.06.055.353.125.707.508,1.053.445.085.977.276,1.504.276.848-.004,1.696-.128,2.54-.218.77-.078,1.532-.182,2.302-.26.27-.027.555.016.813-.031,1.981-.365,4.017-.303,6.022-.462.23-.02.465.004.699.008.621.012,1.243.054,1.86.035,2.251-.07,4.498-.252,6.756-.027.887.089,1.766.249,2.665.14.149-.019.309.016.465.039,1.622.245,3.251.283,4.889.217.582-.023,1.172-.047,1.751.012,1.137.113,2.251-.004,3.368-.089,1.618-.101,3.677-.303,5.791-.489.305-.023.637-.054.926.015.696.163,1.387.117,2.087.124.856.012,1.712.035,2.56.101.93.074,1.848.237,2.778.303,2.95.217,5.908.377,8.867.229.969-.047,1.934-.132,2.903-.186,1.2-.066,2.407-.21,3.603-.159,2.153.097,4.267-.159,6.401-.237,1.395-.051,2.786-.159,4.181-.233,1.317-.066,2.638-.116,3.959-.179.696-.035,1.395-.078,2.091-.124,1.043-.07,2.087-.148,3.13-.218.657-.043,1.313-.081,1.973-.113,1.317-.058,2.638-.078,3.951-.179.739-.058,1.465-.093,2.208-.054.699.035,1.411.082,2.095.004,1.235-.14,2.474-.179,3.716-.19.387-.004.778-.004,1.164-.031,1.122-.074,2.075-.353,3.189-.458.672-.062,1.18-.031,1.876-.144.121-.008.469-.027.797-.19ZM44.236,31.48h1.059l1.059.043-.723.202-1.204.039s-1.778-.14-.191-.284ZM19.07,31.014l2.407-.334,2.411-.291-1.614.431-2.728.419s-4.064.416-.477-.225ZM50.297,31.301l2.427-.062,2.431-.02-1.649.245-2.759.109s-4.087-.035-.449-.272ZM29.468,31.441l-2.153.113h-2.157l1.442-.579,2.438-.225s3.638.167.43.691ZM14.447,31.48h4.037l4.037.074-2.755.33-4.588.062s-6.788-.229-.731-.466ZM41.653,31.196h.57l.57.043-.387.202-.645.039s-.961-.14-.109-.284ZM20.954,31.114h.57l.571.043-.387.202-.645.039c-.008.004-.965-.14-.109-.283ZM9.398,31.716h.571l.571.043-.387.202-.645.039c-.008,0-.965-.144-.109-.284Z"/>
</svg>