<?xml version="1.0" encoding="UTF-8"?>
<svg id="Layer_1" xmlns="http://www.w3.org/2000/svg" version="1.1" viewBox="0 0 1000 239">
  <!-- Generator: Adobe Illustrator 29.8.1, SVG Export Plug-In . SVG Version: 2.1.1 Build 2)  -->
  <defs>
    <style>
      .st0 {
        fill: #0a0203;
      }

      .st1 {
        fill: #a7a9ac;
      }
    </style>
  </defs>
  <g>
    <polygon class="st0" points="525.751 136.107 525.757 136.105 525.761 136.104 525.751 136.107"/>
    <path class="st0" d="M500.805,176.069c-.647,1.743-.945,3.437-.945,5.024,0,.353.015.701.044,1.044v.005c.257,2.844,1.57,5.294,3.695,6.99l-.002-.003c1.851,1.497,4.347,2.427,7.283,2.624h0c.006.003.01.001.017.003.007,0,.013.002.02.002h0c.212.019.373.015.419.026l.039.005h.04c.212.005.422.028.69.029h.039l57.039-.008h.019c.34-.005.629-.042.844-.042h.019c.239-.009.499-.009.786-.04h.004c.006-.001.01,0,.017-.001h0c1.769-.15,3.532-.532,5.261-1.113h.003c3.417-1.169,6.646-3.081,9.346-5.507,2.608-2.357,4.69-5.223,5.887-8.279l.17-.086v-.312l9.443-25.576.141-.073v-.31c.609-1.691.886-3.345.886-4.9,0-.342-.013-.678-.038-1.009v-.008s-.001-.005-.001-.005c-.27-2.835-1.57-5.27-3.676-6.982l.007.006-.012-.01c-2.105-1.684-5.054-2.67-8.484-2.67h-.063l-57.052.015h-.051s-.121,0-.121,0c-2.231,0-4.551.438-6.762,1.194h-.004c-3.445,1.166-6.661,3.084-9.348,5.498-2.686,2.414-4.832,5.381-5.986,8.537l-.006.011-9.608,25.919ZM525.493,150.652c.108-.26.222-.448.376-.625l.015-.018.015-.02c.214-.286.556-.569.928-.745l.006-.003.009-.004c.197-.1.381-.171.55-.209.093-.023.237-.033.445-.054h.002s.188-.024.188-.024l56.965-.015.265.028h-.008s.113.012.113.012l.246.09h.004c.202.091.317.23.357.359l.004.012.006.015.054.29c0,.109-.022.246-.091.443h0l-9.569,25.878v-.003c-.109.285-.192.417-.367.619l-.014.015-.013.017c-.203.265-.583.567-.962.762-.405.2-.68.273-1.122.278l-57.064.004h-.012c-.263-.004-.374-.031-.549-.1-.211-.097-.33-.235-.388-.394l-.004-.01-.005-.012-.049-.247c0-.107.026-.255.104-.469l.002-.005-.004.009,9.564-25.874Z"/>
    <path class="st0" d="M340.325,135.556c-2.24-.039-4.375.184-4.375.184-1.445.169-2.876.485-4.333.973-3.317,1.145-6.475,3.017-9.097,5.37-2.621,2.366-4.721,5.24-5.869,8.29h.013l-.013.013-9.573,25.896-.013.013c-.749,2.036-1.015,4.002-.853,5.786.244,2.669,1.462,4.918,3.461,6.533,1.711,1.387,4.09,2.231,6.874,2.435,0,0,.899.114,1.678.109l56.622.026h15.419s.768.009.768.009l4.748-12.833-73.812-.045c-.118-.023-.235-.043-.314-.07h-.013c-.338-.161-.611-.447-.731-.772-.117-.363-.106-.704.061-1.185l2.412-6.528,74.803.034.782.019,4.748-12.837-75.585-.033,2.414-6.539c.141-.313.271-.56.491-.822.299-.358.74-.7,1.183-.928.246-.132.507-.212.766-.271l73.956-.118,4.697-12.667-16.213-.004-55.1-.037Z"/>
    <path class="st0" d="M810.156,190.961c2.59-.415,5.218-1.12,7.661-2.347,3.211-1.58,6.107-3.836,8.337-6.51,1.504-1.789,2.694-3.745,3.467-5.78l9.673-25.906v-.008c1.135-3.05,1.189-5.929.295-8.309-.855-2.354-2.673-4.228-5.152-5.359-.821-.369-1.708-.631-2.646-.823,0,0-1.213-.375-3.309-.367h-57.574s-16.343,0-16.343,0l-1.819,4.812-2.721,7.303-3.727,9.969-4.268,11.405-3.713,9.976-2.451,6.574-2.077,5.567.768-.002,15.588-.006,56.922.012s1.81.015,3.086-.2ZM763.677,148.385l58.888.029,1.746-.006c.235.064.429.115.587.271v-.019c.3.239.471.566.511.943.027.26-.012.494-.127.807l-2.437,6.533-62.353-.004,3.186-8.554ZM755.708,169.751l62.326.029-2.425,6.528c-.18.47-.452.824-.842,1.176-.363.329-.857.63-1.325.775-.104.037-.235.053-.378.078l-60.568-.024,3.211-8.562Z"/>
    <path class="st0" d="M272.093,169.911l13.439.04c.495.013,1.016-.013,1.524-.04,3.816-.287,7.723-1.629,11.187-3.771,1.953-1.231,3.789-2.702,5.339-4.434,1.537-1.719,2.787-3.653,3.555-5.677l2.384-6.375c.781-2.018,1.016-3.965.768-5.691-.352-2.585-1.732-4.669-3.751-6.088-2.045-1.445-4.792-2.252-8.009-2.279l-70.889-.046,8.199,12.235.157.26h57.82c.247,0,.468.026.677.059.612.111,1.029.358,1.263.631.13.189.222.365.235.495.013.15,0,.209-.052.378l-2.37,6.238c-.743,1.615-2.396,1.498-2.396,1.498h-49.537l12.567,17.88c7.514,10.471,50.15,63.406,145.357,63.406h11.46c-114.819-10.184-138.924-68.719-138.924-68.719Z"/>
    <path class="st0" d="M431.28,218.528c.234-.676.599-1.126,1.172-1.443.547-.328,1.302-.509,2.279-.509h20.432l1.706-4.739h-20.81c-1.446,0-2.761.156-3.894.456-1.146.317-2.188.755-3.048,1.315-.833.56-1.575,1.244-2.188,2.032-.573.793-1.015,1.653-1.341,2.572l-4.662,12.912c-.312.885-.495,1.717-.495,2.487v.156c.027.834.3,1.589.808,2.213.534.637,1.264,1.08,2.227,1.407.938.312,2.162.455,3.62.455h20.432l1.68-4.729h-20.797c-.768,0-1.302-.102-1.602-.287-.248-.182-.326-.304-.338-.612,0-.194.052-.43.143-.704l4.675-12.984Z"/>
    <path class="st0" d="M494.635,213.71c-.521-.637-1.277-1.08-2.214-1.405-.977-.299-2.174-.463-3.607-.463h-16.473c-1.459,0-2.748.164-3.907.443-1.134.325-2.162.763-3.008,1.323-.873.573-1.615,1.249-2.188,2.032-.586.793-1.056,1.653-1.38,2.572l-4.623,12.912c-.365.885-.508,1.717-.508,2.5v.13c.013.832.287,1.602.807,2.226.508.624,1.263,1.1,2.201,1.407.976.312,2.174.461,3.633.461h16.448c1.445,0,2.774-.148,3.906-.443,1.146-.317,2.162-.755,3.008-1.32.873-.56,1.615-1.238,2.188-2.032.573-.763,1.055-1.635,1.367-2.572l4.675-12.925c.3-.86.47-1.707.47-2.515v-.089c-.027-.839-.287-1.622-.807-2.247l.013.005ZM489.269,218.178l-4.675,12.984c-.234.658-.624,1.121-1.159,1.438-.573.34-1.315.522-2.279.522h-16.46c-.782,0-1.315-.123-1.589-.281-.274-.182-.352-.312-.365-.637,0-.169.052-.422.143-.691l4.675-12.968c.26-.691.625-1.146,1.159-1.474.573-.312,1.315-.486,2.279-.486h16.487c.768-.008,1.303.123,1.576.279.26.182.338.299.365.637,0,.156-.039.399-.157.678Z"/>
    <polygon class="st0" points="539.367 211.837 517.724 231.845 510.405 211.837 505.3 211.837 495.938 237.842 501.406 237.842 507.319 221.407 513.361 237.842 517.789 237.842 535.356 221.673 529.522 237.842 530.277 237.842 534.979 237.842 544.329 211.837 539.367 211.837"/>
    <path class="st0" d="M576.676,224.846c.586-.775,1.042-1.643,1.368-2.605l1.341-3.685c.299-.86.456-1.686.456-2.462v-.143c0-.834-.273-1.622-.795-2.242v-.005c-.494-.632-1.25-1.075-2.201-1.4-.963-.299-2.175-.463-3.607-.463h-20.797l-9.363,26.006h5.821l3.308-9.225h15.354c1.459,0,2.748-.151,3.92-.458,1.133-.299,2.149-.729,3.008-1.308.86-.553,1.602-1.231,2.188-2.011ZM573.695,218.178l-1.354,3.751c-.235.676-.612,1.139-1.185,1.464-.533.32-1.289.502-2.266.502h-14.989l2.657-7.311h15.354c.768-.008,1.276.123,1.576.279.274.182.352.299.377.637,0,.156-.078.399-.169.678Z"/>
    <polygon class="st0" points="647.519 229.951 629.835 211.842 625.146 211.842 615.783 237.848 621.044 237.848 627.881 218.835 647.037 237.848 647.272 237.848 649.928 237.848 659.291 211.842 654.03 211.842 647.519 229.951"/>
    <polygon class="st0" points="679.763 223.055 671.715 211.842 664.396 211.842 675.492 227.274 671.702 237.848 672.457 237.848 677.51 237.848 681.221 227.528 703.685 211.842 695.91 211.842 679.763 223.055"/>
    <polygon class="st0" points="733.885 211.837 728.063 211.837 718.726 237.842 719.455 237.842 744.719 237.842 746.451 233.114 726.214 233.114 733.885 211.837"/>
    <polygon class="st0" points="761.088 211.837 751.738 237.842 752.48 237.842 757.559 237.842 766.909 211.837 761.088 211.837"/>
    <polygon class="st0" points="809.271 211.837 787.628 231.845 780.323 211.837 775.191 211.837 765.829 237.842 771.298 237.842 777.21 221.407 783.266 237.842 787.693 237.842 805.234 221.673 799.426 237.842 800.169 237.842 804.896 237.842 814.246 211.837 809.271 211.837"/>
    <polygon class="st0" points="813.152 237.848 813.908 237.848 818.973 237.848 828.323 211.842 822.515 211.842 813.152 237.848"/>
    <polygon class="st0" points="866.701 211.837 835.095 211.837 833.428 216.576 846.464 216.576 838.806 237.842 839.575 237.842 844.641 237.842 852.285 216.576 864.995 216.576 866.701 211.837"/>
    <polygon class="st0" points="877.457 216.576 898.398 216.576 900.077 211.837 873.343 211.837 863.992 237.842 864.721 237.842 890.727 237.842 892.434 233.114 871.506 233.114 873.889 226.512 893.749 226.512 895.468 221.773 875.608 221.773 877.457 216.576"/>
    <path class="st0" d="M935.173,212.31c-1.133-.305-2.591-.468-4.402-.468h-23.206l-9.363,26.006h23.584c1.81,0,3.386-.148,4.701-.461,1.367-.328,2.513-.796,3.503-1.415.976-.642,1.783-1.438,2.435-2.375.664-.914,1.185-2.001,1.628-3.217l3.763-10.458c.456-1.269.703-2.382.756-3.385v-.21c0-.924-.26-1.776-.782-2.446-.586-.742-1.484-1.238-2.617-1.571ZM932.517,217.937v.005c-.026.386-.143.926-.391,1.615l-3.751,10.425c-.234.645-.495,1.154-.755,1.558-.274.384-.573.688-.938.911-.391.228-.834.389-1.42.494-.573.118-1.303.176-2.149.176h-17.385l5.964-16.538h17.763c.846,0,1.51.043,1.993.156.482.11.742.258.872.435.13.138.196.325.196.632v.13Z"/>
    <path class="st0" d="M598.516,211.842l-26.631,26.006h6.746l4.884-4.849h19.065l1.328,4.849h6.42l-7.787-26.006h-4.024ZM588.318,228.244l10.106-10.015,2.8,10.015h-12.906Z"/>
    <path class="st0" d="M225.413,144.563v-.006s-.001-.006-.001-.006c-.27-2.835-1.57-5.27-3.676-6.982l-.004-.003h0c-2.105-1.684-5.054-2.67-8.484-2.67h-.063l-57.052.015h-.051s-.121,0-.121,0c-2.233,0-4.554.439-6.766,1.195-3.444,1.164-6.661,3.083-9.348,5.496-2.687,2.415-4.832,5.382-5.987,8.538l-.004.007-9.609,25.922c-.647,1.743-.945,3.437-.945,5.024,0,.353.015.701.044,1.044v.004h0c.257,2.845,1.57,5.296,3.695,6.991l-.002-.002c1.851,1.497,4.347,2.427,7.283,2.624h0c.006.003.01.001.016.003.008,0,.014.002.021.002h0c.212.019.373.015.419.026l.04.005h.04c.212.005.422.028.69.029h.039l57.039-.008h.019c.34-.005.629-.044.844-.042h.019c.239-.009.499-.009.786-.04h.004c.006-.001.01,0,.017-.001h0c1.769-.15,3.532-.532,5.261-1.113l.007-.003h-.004c3.417-1.167,6.646-3.078,9.346-5.504l.006-.005-.005.004c2.606-2.355,4.69-5.22,5.886-8.278l.17-.086v-.312l9.438-25.564.146-.069v-.326c.609-1.691.886-3.345.886-4.9,0-.342-.013-.678-.038-1.009ZM198.46,177.474c-.405.2-.68.273-1.121.278h.017l-57.082.004h-.012c-.263-.004-.373-.031-.549-.1-.211-.097-.33-.235-.388-.394l-.004-.012-.005-.01-.049-.247c0-.107.026-.255.104-.47l-.002.005,9.564-25.876c.107-.26.222-.448.376-.625l.016-.018.015-.02c.214-.287.557-.569.928-.744l.008-.004.008-.004c.196-.1.38-.17.55-.209h.007s-.003,0-.003,0c.09-.023.232-.033.439-.053h.007s.187-.024.187-.024l56.964-.015.259.026.11.013.244.089.004.002c.205.09.319.229.359.358l.004.013.004.013.055.29c0,.109-.022.246-.091.443h0l-9.567,25.876h0c-.111.287-.193.418-.368.621l-.014.017-.013.015c-.203.265-.583.567-.962.762Z"/>
    <polygon class="st0" points="149.193 136.107 149.194 136.106 149.195 136.106 149.193 136.107"/>
    <path class="st0" d="M677.015,176.031l-45.931-39.431-.052-.039-.039-.039h-.013v-.02c-.846-.658-1.784-1.159-2.826-1.478-1.042-.352-2.136-.488-3.204-.488h-.052c-1.094,0-2.136.136-3.087.351-1.42.299-2.604.768-3.477,1.179h-.026c-.859.403-1.459.755-1.758.937-1.862,1.153-3.321,2.813-3.972,4.552l-5.13,13.706-13.518,35.76h14.793l15.081-40.943,45.487,39.075c.195.161.43.299.638.422.586.456,1.251.834,1.915,1.121,1.068.422,2.162.624,3.229.709l.3.008c.208.013.443.038.651.038h.039c2.396,0,4.506-.56,6.004-1.041h.026c1.498-.496,2.553-1.003,2.838-1.134v-.005c2.292-1.116,4.142-3.03,4.897-5.067l17.666-47.204.548-1.523h-15.879l-15.149,40.554ZM624.404,135.948c.313,0,.599.039.938.053-.339-.013-.651-.053-.938-.053Z"/>
    <polygon class="st0" points="435.173 191.141 435.967 191.151 448.234 191.146 449.028 191.141 449.028 191.115 451.047 191.133 451.829 191.128 467.481 148.21 504.947 148.203 505.689 148.199 510.272 135.567 489.076 135.567 471.317 135.575 459.375 135.584 420.372 135.605 415.767 148.23 416.536 148.226 450.825 148.226 435.173 191.141"/>
    <path class="st0" d="M977.438,135.543l-23.916,24.975-16.489-24.975h-18.525l24.04,36.4-16.362,17.115-2.563,2.262-29.088-51.748-.393-.464c-1.046-1.21-2.393-2.197-3.871-2.865-1.517-.654-3.1-.935-4.604-.935h-.039c-1.412,0-2.694.216-3.793.543-1.648.445-2.943,1.086-3.845,1.615-.929.53-1.531.968-1.779,1.164l-.497.386-.065.04-48.576,52.323h19.685l11.418-12.499h40.937l7.023,12.499h39.636l54.228-55.835h-22.562ZM868.931,167.202l14.63-16.141,8.999,16.141h-23.629Z"/>
    <polygon class="st0" points="113.017 135.559 59.273 176.984 35.69 135.559 20.64 135.559 0 191.239 16.148 191.239 16.265 190.925 28.554 157.787 47.71 191.239 60.873 191.239 103.799 158.263 91.577 191.239 107.71 191.239 128.371 135.559 113.017 135.559"/>
  </g>
  <g>
    <path class="st1" d="M565.065,18.379s-16.358,13.218-17.964,15.147c0,0,37.615-5.464,71.359,4.075,0,0,30.825,8.272,48.151,4.593l-.035-3.503s8.17-6.437,14.394-6.496l-13.262-.203-9.884,2.982-45.473-15.446,43.103-.764L616.99.369s-86.207-.107-87.248,12.006c0,0,33.133-2.257,35.323,6.004Z"/>
    <path class="st1" d="M215.844,90.243c290.411-9.341,471.577,29.172,495.895,34.694l1.246-3.299,1.787-4.774c-9.811-1.823-19.536-3.548-29.246-5.196l-4.385-21.222s9.16-15.713,19.373-19.731c0,0-81.98-27.157-96.946-27.944,0,0-12.662-1.432-30.462-1.919-15.447.028-31.81,1.437-48.523,4.31-16.578,2.868-32.319,6.982-46.906,12.11-.407.278-.866.571-1.307.876l5.03.339,37.751,2.287c2.036-1.681,17.156-14.196,21.489-15.187l-10.675,15.831,89.323,5.449,1.38.061,16.04,21.988c-69.101-13.936-208.55-38.808-288.657-30.893l.34.295c27.532-1.449,131.29-2.784,313.049,41.682l-.096,7.78c-232.134-35.853-420.717-20.103-446.133-17.709l.634.171ZM661.507,94.061c-4.136-.899-9.065-1.918-14.542-3.055l-10.32-15.538,25.037-3.599-.175,22.192ZM664.002,72.053l5.975,2.794,3.785,21.892-9.348-2.032-.413-22.653ZM664.584,108.285l-.102-7.514c3.497.85,7.084,1.727,10.643,2.631l1.364,6.778c-3.973-.645-7.956-1.267-11.905-1.895Z"/>
  </g>
</svg>